{"title":"Marvels.Jessica.Jones.S01E02.PROPER.720p.WEBRiP.x264-QCF","uid":12801572,"size":1105647101,"categoryP":"video","categoryS":"hd___tv_shows","magnet":"?xt=urn:btih:c176ce94d577b5b3b88e21a81bd2159187abe328&amp;dn=Marvels.Jessica.Jones.S01E02.PROPER.720p.WEBRiP.x264-QCF&amp;tr=udp%3A%2F%2Ftracker.leechers-paradise.org%3A6969&amp;tr=udp%3A%2F%2Fzer0day.ch%3A1337&amp;tr=udp%3A%2F%2Fopen.demonii.com%3A1337&amp;tr=udp%3A%2F%2Ftracker.coppersurfer.tk%3A6969&amp;tr=udp%3A%2F%2Fexodus.desync.com%3A6969","seeders":1,"leechers":0,"uploader":"TheRival","files":3,"time":1448058918,"description":"Screens: \nhttp://extraimago.com/image/CyL\r\n\r\nRELEASE iNFORMATiON\r\nmarvels.jessica.jones.s01e02.720p.webrip.x264-qcf\r\n\r\nRelease Date .....: 11-20-2015\r\nRetail Date ......:\r\nRuntime ..........: --mn\r\nSize .............: --mb\r\nVideo ............:\r\nAudio ............: 5.1\r\nLanguage .........: ENG\r\nLink .............:\r\n\r\nNotes.............: SKGTV team's release has bad fps and spanish overlays\r\n\r\nVideo\r\nID                                       : 1\r\nFormat                                   : AVC\r\nFormat/Info                              : Advanced Video Codec\r\nFormat profile                           :   \r\nFormat settings, CABAC                   : Yes\r\nFormat settings, ReFrames                : 5 frames\r\nCodec ID                                 : V_MPEG4/ISO/AVC\r\nDuration                                 : 51mn 51s\r\nBit rate                                 : 2 146 Kbps\r\nWidth                                    : 1 280 pixels\r\nHeight                                   : 720 pixels\r\nDisplay aspect ratio                     : 16:9\r\nFrame rate mode                          : Constant\r\nFrame rate                               : 23.976 fps\r\nColor space                              : YUV\r\nChroma subsampling                       : 4:2:0\r\nBit depth                                : 8 bits\r\nScan type                                : Progressive\r\nBits/(Pixel*Frame)                       : 0.097\r\nStream size                              : 796 MiB (75%)\r\nWriting library                          : x264 core 148 r2638 7599210\r\nEncoding settings                        : cabac=1 / ref=5 / deblock=1:0:0 / analyse=0x3:0x113 / me=umh / subme=8 / psy=1 / psy_rd=1.00:0.00 / mixed_ref=1 / me_range=16 / chroma_me=1 / trellis=1 / 8x8dct=1 / cqm=0 / deadzone=21,11 / fast_pskip=1 / chroma_qp_offset=-2 / threads=9 / lookahead_threads=1 / sliced_threads=0 / nr=0 / decimate=1 / interlaced=0 / bluray_compat=0 / constrained_intra=0 / bframes=3 / b_pyramid=2 / b_adapt=2 / b_bias=0 / direct=3 / weightb=1 / open_gop=0 / weightp=2 / keyint=250 / keyint_min=25 / scenecut=40 / intra_refresh=0 / rc_lookahead=50 / rc=crf / mbtree=1 / crf=18.0 / qcomp=0.60 / qpmin=0 / qpmax=69 / qpstep=4 / ip_ratio=1.40 / aq=1:1.00\r\nDefault                                  : Yes\r\nForced                                   : No\r\n\r\nAudio\r\nID                                       : 2\r\nFormat                                   : AC-3\r\nFormat/Info                              : Audio Coding 3\r\nMode extension                           : CM (complete main)\r\nFormat settings, Endianness              : Big\r\nCodec ID                                 : A_AC3\r\nDuration                                 : 51mn 51s\r\nBit rate mode                            : Constant\r\nBit rate                                 : 640 Kbps\r\nChannel(s)                               : 6 channels\r\nChannel positions                        : Front: L C R, Side: L R, LFE\r\nSampling rate                            : 48.0 KHz\r\nCompression mode                         : Lossy\r\nDelay relative to video                  : 31ms\r\nStream size                              : 237 MiB (23%)\r\nLanguage                                 : English\r\nDefault                                  : Yes\r\nForced                                   : No","torrent":{"xt":"urn:btih:c176ce94d577b5b3b88e21a81bd2159187abe328","amp;dn":"Marvels.Jessica.Jones.S01E02.PROPER.720p.WEBRiP.x264-QCF","amp;tr":["udp%3A%2F%2Ftracker.leechers-paradise.org%3A6969","udp%3A%2F%2Fzer0day.ch%3A1337","udp%3A%2F%2Fopen.demonii.com%3A1337","udp%3A%2F%2Ftracker.coppersurfer.tk%3A6969","udp%3A%2F%2Fexodus.desync.com%3A6969"],"infoHash":"c176ce94d577b5b3b88e21a81bd2159187abe328","infoHashBuffer":{"type":"Buffer","data":[193,118,206,148,213,119,181,179,184,142,33,168,27,210,21,145,135,171,227,40]},"announce":[],"urlList":[]}}